<?xml version="1.0" standalone="no"?>
<!DOCTYPE svg PUBLIC "-//W3C//DTD SVG 20010904//EN"
 "http://www.w3.org/TR/2001/REC-SVG-20010904/DTD/svg10.dtd">
<svg version="1.0" xmlns="http://www.w3.org/2000/svg"
 width="577.000000pt" height="577.000000pt" viewBox="0 0 577.000000 577.000000"
 preserveAspectRatio="xMidYMid meet">

<g transform="translate(0.000000,577.000000) scale(0.100000,-0.100000)"
fill="#000000" stroke="none">
<path d="M1320 4643 c-326 -31 -557 -131 -745 -320 -433 -437 -423 -1205 23
-1624 205 -194 468 -289 798 -289 233 0 383 30 560 114 279 132 468 348 568
646 46 139 66 257 66 400 0 454 -198 784 -576 962 -178 83 -482 132 -694 111z
m222 -162 c262 -67 467 -267 571 -557 109 -305 92 -752 -39 -1023 -82 -168
-230 -290 -404 -332 -73 -18 -249 -15 -331 4 -264 63 -464 239 -581 510 -156
361 -134 874 48 1148 119 180 296 267 545 268 83 1 137 -4 191 -18z"/>
<path d="M4795 4644 c-271 -28 -471 -163 -547 -370 -32 -88 -32 -263 0 -359
62 -184 168 -308 462 -540 177 -140 249 -216 296 -311 37 -75 39 -82 39 -178
0 -93 -2 -105 -30 -155 -63 -114 -165 -171 -321 -179 -184 -9 -320 62 -393
206 -28 56 -61 183 -61 237 0 30 -26 44 -46 24 -15 -16 -34 -229 -34 -395 0
-117 10 -132 117 -167 125 -41 197 -49 380 -44 191 5 245 16 372 78 105 52
213 154 259 245 51 102 66 167 67 294 0 101 -4 126 -29 204 -58 176 -186 325
-457 531 -173 131 -296 251 -330 320 -20 42 -24 65 -24 140 0 102 10 129 72
189 120 117 341 128 497 25 79 -53 114 -118 150 -281 7 -30 27 -36 44 -15 6 7
14 100 18 222 6 174 4 212 -7 222 -38 31 -371 70 -494 57z"/>
<path d="M2916 4602 c-11 -3 -16 -11 -14 -25 3 -20 11 -23 91 -29 101 -9 140
-25 164 -71 16 -29 19 -81 25 -537 8 -597 1 -1392 -13 -1540 -15 -152 -35
-233 -84 -335 -54 -113 -121 -188 -231 -261 -57 -38 -84 -62 -82 -73 6 -29 44
-23 130 20 277 138 496 359 577 583 67 186 66 171 63 1086 -3 813 2 1004 29
1063 17 38 60 59 136 65 65 5 96 23 75 44 -8 8 -136 11 -430 12 -230 1 -426
-1 -436 -2z"/>
<path d="M338 2028 c-2 -29 0 -59 5 -65 7 -10 256 -12 1166 -10 l1156 2 0 60
0 60 -1162 3 -1161 2 -4 -52z"/>
<path d="M3787 2073 c-13 -12 -8 -111 6 -115 6 -2 364 -2 795 0 l783 4 -3 57
-3 56 -786 3 c-432 1 -789 -1 -792 -5z"/>
<path d="M3100 1468 c-23 -62 -51 -125 -61 -140 l-20 -28 35 0 c27 0 34 4 30
15 -3 8 -1 30 6 50 11 33 14 35 54 35 39 0 44 -3 59 -35 9 -20 17 -42 17 -50
0 -11 11 -15 38 -14 32 0 34 2 20 12 -10 6 -41 69 -69 139 -28 71 -55 128 -59
128 -4 0 -26 -51 -50 -112z m79 -40 c1 -5 -14 -8 -33 -8 l-35 0 16 47 16 48
18 -40 c10 -22 18 -43 18 -47z"/>
<path d="M420 1552 c-73 -36 -96 -136 -47 -206 76 -109 267 -46 267 88 0 107
-117 170 -220 118z m133 -22 c33 -26 51 -80 42 -128 -14 -80 -76 -113 -145
-77 -39 20 -60 63 -60 120 0 38 5 52 29 76 36 36 95 40 134 9z"/>
<path d="M699 1556 c8 -10 11 -53 9 -135 l-3 -121 35 1 c19 0 29 3 23 6 -10 3
-13 38 -13 124 0 114 1 119 21 119 32 0 56 -17 63 -46 9 -32 -16 -74 -44 -74
-11 0 -20 -5 -20 -10 0 -16 52 0 78 23 15 15 22 32 22 59 0 35 -4 41 -35 54
-19 7 -60 14 -91 14 -48 0 -55 -2 -45 -14z"/>
<path d="M945 1430 l0 -141 70 3 70 3 2 30 c1 17 -1 23 -3 13 -6 -19 -47 -32
-75 -23 -16 5 -19 16 -19 61 0 53 0 54 29 54 17 0 33 -5 37 -11 4 -8 9 -7 15
2 17 27 9 34 -36 31 l-45 -4 0 51 c0 49 1 51 27 51 14 0 35 -7 45 -17 17 -15
18 -15 18 10 0 27 -1 27 -67 27 l-68 0 0 -140z"/>
<path d="M1168 1435 l-3 -135 29 0 c23 0 27 3 18 12 -12 12 -18 178 -7 178 3
0 47 -43 97 -95 49 -52 97 -95 104 -95 11 0 14 25 14 123 0 82 4 127 12 135 9
9 4 12 -25 12 -20 0 -37 -4 -37 -10 0 -5 5 -10 10 -10 6 0 10 -38 10 -95 l0
-95 -101 105 c-56 58 -105 105 -110 105 -4 0 -9 -61 -11 -135z"/>
<path d="M1658 1422 c3 -136 2 -147 -18 -174 -29 -39 -20 -45 18 -13 37 31 41
49 44 212 l3 122 -25 -1 -25 -1 3 -145z"/>
<path d="M1839 1547 c-117 -78 -65 -257 74 -257 113 0 185 106 138 203 -36 75
-141 102 -212 54z m130 -11 c35 -19 51 -55 51 -117 0 -42 -5 -55 -29 -80 -42
-42 -92 -40 -137 5 -40 40 -48 93 -23 157 18 46 84 63 138 35z"/>
<path d="M2128 1483 c4 -155 28 -193 119 -193 69 1 101 44 109 148 3 37 6 81
8 97 4 27 1 31 -22 33 l-27 2 3 -106 c4 -99 2 -107 -19 -130 -27 -29 -68 -31
-100 -5 -23 18 -24 26 -24 130 l0 111 -25 0 c-25 0 -25 0 -22 -87z"/>
<path d="M2445 1435 l0 -135 40 0 c32 1 37 3 23 11 -13 7 -18 23 -18 54 0 39
3 45 21 45 13 0 41 -22 72 -55 l50 -55 76 0 c42 0 71 4 65 8 -13 8 -30 182
-17 182 5 0 51 -43 103 -95 52 -52 98 -95 102 -95 5 0 8 44 8 98 0 53 4 114 9
135 l9 37 -35 0 c-31 0 -33 -1 -19 -16 12 -12 16 -37 16 -107 l-1 -92 -102
108 c-56 59 -105 108 -109 107 -4 0 -9 -57 -10 -127 -3 -126 -3 -128 -27 -131
-24 -4 -65 28 -102 79 -18 26 -18 27 3 67 39 71 1 112 -105 112 l-52 0 0 -135z
m124 83 c12 -20 13 -34 5 -55 -8 -23 -16 -29 -47 -31 l-37 -3 0 61 0 61 32 -3
c23 -2 37 -11 47 -30z"/>
<path d="M3329 1556 c8 -10 11 -53 9 -135 -2 -94 0 -122 10 -126 8 -3 40 -5
72 -5 50 0 61 3 70 21 15 27 6 36 -15 15 -19 -18 -34 -20 -69 -6 -26 9 -26 11
-26 118 0 71 4 112 12 120 9 9 2 12 -31 12 -36 0 -42 -2 -32 -14z"/>
<path d="M3690 1543 c-30 -39 -19 -69 47 -128 46 -42 55 -54 49 -73 -14 -41
-83 -41 -104 1 -11 20 -11 19 -9 -13 2 -34 3 -35 49 -38 40 -3 52 1 73 22 42
42 34 74 -36 139 -54 49 -59 58 -49 76 13 25 61 28 84 5 15 -14 16 -13 16 10
0 24 -3 26 -49 26 -42 0 -53 -4 -71 -27z"/>
<path d="M4044 1553 c-14 -43 -38 -94 -50 -104 -10 -8 -20 4 -46 50 -28 52
-37 61 -61 61 l-27 0 45 -62 c47 -65 60 -104 53 -163 -4 -34 -3 -35 32 -34 19
0 29 3 23 6 -8 3 -13 25 -13 57 0 45 6 63 41 117 23 35 45 66 50 67 19 7 8 22
-16 22 -16 0 -28 -7 -31 -17z"/>
<path d="M4152 1547 c-36 -38 -28 -65 33 -122 32 -29 55 -59 55 -71 0 -49 -70
-63 -93 -17 -14 27 -15 27 -22 4 -10 -33 11 -51 62 -51 33 0 50 6 68 25 42 41
34 71 -37 137 -53 49 -61 61 -52 76 17 27 69 28 89 0 l16 -23 -3 30 c-3 28 -6
30 -48 33 -37 2 -50 -1 -68 -21z"/>
<path d="M4330 1561 c0 -5 -3 -18 -7 -28 -6 -15 -4 -16 9 -5 18 14 81 23 88
12 3 -4 3 -60 0 -124 l-5 -116 33 0 c28 0 31 3 24 18 -4 9 -10 63 -11 120 l-3
102 39 0 c21 0 44 -5 51 -12 9 -9 12 -6 12 15 l0 27 -115 0 c-63 0 -115 -4
-115 -9z"/>
<path d="M4610 1560 c0 -5 5 -10 11 -10 6 0 9 -44 8 -127 l-1 -128 68 0 c66 0
69 1 72 25 2 14 -1 20 -5 14 -12 -17 -50 -26 -73 -19 -18 6 -21 14 -18 58 3
46 6 52 26 55 13 2 29 -1 36 -7 14 -12 26 -5 26 15 0 8 -16 14 -42 16 l-43 3
0 45 c0 41 2 45 26 48 15 2 34 -4 43 -13 15 -15 16 -14 16 9 0 26 -1 26 -75
26 -43 0 -75 -4 -75 -10z"/>
<path d="M4867 1523 c-4 -27 -9 -79 -13 -118 -4 -38 -11 -78 -16 -87 -7 -15
-4 -18 14 -18 22 0 23 5 26 77 2 43 6 82 9 87 4 5 26 -30 50 -77 24 -48 47
-87 51 -87 4 0 27 39 50 86 24 48 45 84 48 81 3 -2 8 -40 12 -83 l7 -79 34 -3
c30 -3 32 -2 19 12 -10 10 -20 54 -28 131 -7 63 -15 117 -19 120 -4 2 -31 -43
-59 -101 -29 -58 -56 -103 -60 -100 -4 2 -29 50 -57 105 -27 56 -52 101 -56
101 -3 0 -9 -21 -12 -47z"/>
<path d="M5241 1551 c-38 -38 -28 -74 34 -127 55 -48 68 -77 43 -102 -19 -19
-66 -14 -80 8 -16 25 -28 26 -28 2 0 -29 21 -42 65 -42 48 0 80 20 89 54 9 38
-9 71 -58 108 -50 37 -64 62 -46 83 16 20 69 19 76 0 9 -23 26 -18 22 8 -3 19
-10 22 -50 25 -37 2 -51 -1 -67 -17z"/>
</g>
</svg>
